# xmcd
#
# Track frame offsets:
#	150
#	19718
#	34679
#	49438
#	68532
#	88948
#
# Disc length: 1440 seconds
#
# Revision: 0
# Processed by: cddbd v1.4PL0 Copyright (c) Steve Scherf et al.
# Submitted via: audiograbber 1.80
#
DISCID=48059e06
DTITLE=Jade Botelho - Demo
DYEAR=1900
DGENRE=
TTITLE0=Alfazema
TTITLE1=Samba Infinito
TTITLE2=Os Passos de Uma Rosa
TTITLE3=Anonimo
TTITLE4=Fator
TTITLE5=Simetria
EXTD=
EXTT0=
EXTT1=
EXTT2=
EXTT3=
EXTT4=
EXTT5=
PLAYORDER=
